<?xml version="1.0" encoding="UTF-8"?>
<svg version="1.1" xmlns="http://www.w3.org/2000/svg" width="341" height="341">
<path d="M0 0 C0 2.31 0 4.62 0 7 C-1.0725 7.391875 -2.145 7.78375 -3.25 8.1875 C-7.73485279 10.11734575 -9.98095337 12.86625616 -12.08203125 17.265625 C-17.40596338 33.12414625 -8.22073354 51.66145986 -2.34967041 66.15924072 C-1.21466084 68.96227402 -0.09016707 71.76933448 1.03173828 74.57763672 C2.20246688 77.50800587 3.37371345 80.43815217 4.54800415 83.36709595 C8.3817109 92.93057893 12.13648964 102.52398695 15.875 112.125 C16.52304721 113.7864836 17.17115964 115.44794176 17.81933594 117.109375 C21.54511992 126.66527829 25.24999652 136.22915146 28.9453125 145.796875 C29.79439178 147.99334299 30.64351279 150.18979484 31.49267578 152.38623047 C33.1167499 156.58711351 34.73702835 160.7894317 36.35498047 164.99267578 C38.54503588 170.67172046 40.76461367 176.33866322 43 182 C43.35336426 182.90206177 43.70672852 183.80412354 44.07080078 184.73352051 C45.09440882 187.33139236 46.13760277 189.92047043 47.1875 192.5078125 C47.48414551 193.26649628 47.78079102 194.02518005 48.08642578 194.80685425 C50.34412331 200.27731639 53.50560277 206.25280138 59 209 C65.22948797 209.519124 67.89328081 208.89083366 73 205 C73.66 205 74.32 205 75 205 C75.66 206.32 76.32 207.64 77 209 C74.18728784 213.60261989 70.96760222 215.48856926 66.0390625 217.26953125 C56.17600583 219.64021454 45.95249036 218.82584473 37 214 C14.59258401 199.89790461 5.32561849 169.77125599 -3.625 146.375 C-4.57534603 143.9165153 -5.52694277 141.45851375 -6.47973633 139.00097656 C-7.92405848 135.27494463 -9.36741625 131.54859374 -10.80592346 127.8203125 C-13.85209637 119.92960828 -16.95002224 112.06168861 -20.09765625 104.2109375 C-20.49208923 103.22495575 -20.88652222 102.238974 -21.29290771 101.22311401 C-23.52251226 95.65066945 -23.52251226 95.65066945 -25.76568604 90.0836792 C-34.2388738 69.11408839 -40.93893922 47.06829326 -31.74609375 24.98828125 C-26.23221888 14.21594261 -18.3398109 5.17461553 -6.62109375 1.19140625 C-2.02801724 0 -2.02801724 0 0 0 Z " fill="#FEFEFE" transform="translate(166,103)"/>
<path d="M0 0 C11.88 0 23.76 0 36 0 C36 70.95 36 141.9 36 215 C24.12 215 12.24 215 0 215 C0 213.02 0 211.04 0 209 C3.63 209 7.26 209 11 209 C11 142.01 11 75.02 11 6 C7.37 6 3.74 6 0 6 C0 4.02 0 2.04 0 0 Z " fill="#FDFDFD" transform="translate(247,105)"/>
<path d="M0 0 C15.84 0 31.68 0 48 0 C48 1.98 48 3.96 48 6 C44.04 6 40.08 6 36 6 C36 74.97 36 143.94 36 215 C24.12 215 12.24 215 0 215 C0 213.02 0 211.04 0 209 C3.96 209 7.92 209 12 209 C12 142.01 12 75.02 12 6 C8.04 6 4.08 6 0 6 C0 4.02 0 2.04 0 0 Z " fill="#FEFEFE" transform="translate(3,105)"/>
<path d="M0 0 C11.21530077 -0.50093155 20.4295931 -0.49166644 29.75 6.625 C39.14522669 15.48967271 43.46762756 29.29468909 44.16113281 41.9375 C44.71362569 82.23093429 44.71362569 82.23093429 31.5 96 C28.54029089 98.69603792 25.41490532 100.91774066 22 103 C22.6290625 103.3403125 23.258125 103.680625 23.90625 104.03125 C37.62118923 111.79754089 44.89008232 121.95678306 49.23828125 137.01953125 C54.18618905 156.3798064 52.06676959 177.76236039 42.625 195.34765625 C36.60160018 205.17911893 28.34664118 211.8020765 17.0625 214.54296875 C11.38928724 215.38960892 5.71784753 215.22537501 0 215 C0 213.02 0 211.04 0 209 C1.12019531 208.90203125 2.24039062 208.8040625 3.39453125 208.703125 C4.86728484 208.55303546 6.33993629 208.40194123 7.8125 208.25 C8.55048828 208.188125 9.28847656 208.12625 10.04882812 208.0625 C14.43775037 207.59297368 14.43775037 207.59297368 17.94921875 205.109375 C20.1106685 200.77040524 20.15409794 196.90446114 20.16113281 192.16723633 C20.16609772 191.37010223 20.17106262 190.57296814 20.17617798 189.75167847 C20.19079393 187.11178729 20.19760182 184.47195627 20.203125 181.83203125 C20.20887837 179.99460346 20.21463608 178.15717569 20.22039795 176.31974792 C20.23090733 172.4637321 20.23674993 168.60773712 20.24023438 164.75170898 C20.24570891 159.82341216 20.26971489 154.89539304 20.29820633 149.96718311 C20.3168832 146.16921704 20.32204107 142.37131705 20.32357025 138.57330894 C20.32658758 136.757326 20.33458492 134.94134396 20.34775543 133.12540627 C20.36491638 130.57663876 20.36291104 128.02853904 20.35644531 125.47973633 C20.3656601 124.73710037 20.37487488 123.99446442 20.3843689 123.22932434 C20.3422422 117.89622182 19.21604665 113.86853993 17 109 C13.47590783 106.754667 9.80564271 106.64652589 5.6875 106.375 C4.61886719 106.30023438 3.55023438 106.22546875 2.44921875 106.1484375 C1.23685547 106.07496094 1.23685547 106.07496094 0 106 C0 104.02 0 102.04 0 100 C0.96421875 99.95101562 1.9284375 99.90203125 2.921875 99.8515625 C4.81679688 99.73941406 4.81679688 99.73941406 6.75 99.625 C8.62945312 99.52058594 8.62945312 99.52058594 10.546875 99.4140625 C13.62729697 99.04469063 15.46576884 98.72205588 18 97 C20.89374232 91.51711981 21.12475408 85.49393777 21.14526367 79.40307617 C21.15164352 78.11120895 21.15802338 76.81934174 21.16459656 75.48832703 C21.16612568 74.08987465 21.1672394 72.69142177 21.16796875 71.29296875 C21.17118664 69.8433682 21.1745511 68.39376798 21.17805481 66.94416809 C21.18402813 63.91060636 21.18589659 60.87707305 21.18530273 57.84350586 C21.18520128 53.97702918 21.19884465 50.1107368 21.21607494 46.2443037 C21.22725349 43.25095297 21.22922014 40.25764596 21.22869301 37.2642765 C21.22986465 35.83988117 21.23424005 34.41548439 21.24202538 32.99110985 C21.93700488 20.49245457 21.93700488 20.49245457 17.55168152 9.32853699 C14.24537935 6.49770819 11.12500187 6.70795466 6.875 6.4375 C5.59367187 6.35371094 4.31234375 6.26992187 2.9921875 6.18359375 C1.51105469 6.09271484 1.51105469 6.09271484 0 6 C0 4.02 0 2.04 0 0 Z " fill="#FDFDFD" transform="translate(287,105)"/>
<path d="M0 0 C0.75 3.1875 0.75 3.1875 1 7 C-0.31037934 8.68477344 -1.64843325 10.34808509 -3 12 C-6.58542244 20.75943646 -6.44182222 29.88902405 -6.3984375 39.18359375 C-6.40046441 40.73096351 -6.40338095 42.27833232 -6.40713501 43.82569885 C-6.41153072 47.05226836 -6.40521795 50.27858688 -6.39111328 53.50512695 C-6.37403735 57.6078237 -6.38386984 61.70993075 -6.40183067 65.81260586 C-6.41275597 69.00340587 -6.40918224 72.19406986 -6.4014473 75.38487434 C-6.39946859 76.89609919 -6.40182102 78.40733705 -6.40888596 79.91854668 C-6.44546325 89.93922653 -6.42262934 100.29561777 -1.125 109.125 C3.29144234 113.02186089 7.51446968 113.44917062 13.24609375 113.3125 C20.90161526 112.44378834 27.19428742 109.57092392 32.66015625 104.171875 C34 103 34 103 36 103 C36.4021875 102.1028125 36.4021875 102.1028125 36.8125 101.1875 C37.98493467 99.02775192 39.19369282 97.64209744 41 96 C43 99 43 99 42.84765625 101.4375 C40.49132767 108.56077901 32.46134175 113.73844317 26 117 C17.10049513 121.28558681 6.66664133 121.5109897 -2.6875 118.5 C-16.08630671 112.8449154 -24.2800506 103.30887996 -30.3125 90.3125 C-38.31701567 70.24668416 -38.44331664 47.84754427 -30.75 27.6875 C-28.25455885 22.07834422 -25.08852669 17.55602974 -21 13 C-20.36964844 12.2884375 -19.73929688 11.576875 -19.08984375 10.84375 C-13.82261277 5.23095516 -7.98475578 0 0 0 Z " fill="#FDFDFD" transform="translate(142,201)"/>
<path d="M0 0 C0.63808594 0.26683594 1.27617187 0.53367187 1.93359375 0.80859375 C3.68988732 -0.1671249 5.44374401 -1.15001616 7.15234375 -2.20703125 C10.04885043 -3.80773231 11.68602998 -3.840919 14.93359375 -3.19140625 C21.2367046 -0.02305746 25.24394038 3.85753993 28.93359375 9.80859375 C29.44148438 9.19371094 29.949375 8.57882813 30.47265625 7.9453125 C35.4835689 2.06171281 38.95433106 -1.54958969 46.80859375 -2.81640625 C51.38729748 -2.62343406 53.96871923 -0.36809218 57.171875 2.734375 C65.23102361 12.22308434 64.77310065 24.01941525 63.93359375 35.80859375 C60.55412479 56.75269121 46.701885 74.58658438 33.93359375 90.80859375 C21.44235903 86.29605346 7.24376587 72.77385193 -0.06640625 61.80859375 C-0.60007812 62.87335938 -1.13375 63.938125 -1.68359375 65.03515625 C-6.73476029 74.93470945 -12.34846478 83.95886291 -19.06640625 92.80859375 C-25.59301622 89.18532203 -30.69830821 83.91554107 -36.06640625 78.80859375 C-36.64696777 78.26203125 -37.2275293 77.71546875 -37.82568359 77.15234375 C-52.19453864 63.55837631 -65.32782904 48.42315208 -67.06640625 27.80859375 C-67.16112807 20.51501356 -65.2606386 14.27364145 -60.26953125 8.859375 C-55.2049611 4.17759213 -50.59031615 0.68707962 -43.44140625 0.93359375 C-37.52769467 2.46677823 -34.2242174 5.41319339 -30.06640625 9.80859375 C-29.72609375 9.36128906 -29.38578125 8.91398437 -29.03515625 8.453125 C-24.72152732 3.07256125 -20.09918891 -0.640336 -13.62890625 -3.12890625 C-8.96280641 -3.24271356 -4.06482136 -2.34361156 0 0 Z M-21.76171875 7.4296875 C-24.38883231 10.38043099 -26.3878074 13.22285442 -28.06640625 16.80859375 C-31.06640625 16.80859375 -31.06640625 16.80859375 -32.75 15.12890625 C-33.32878906 14.40445312 -33.90757812 13.68 -34.50390625 12.93359375 C-36.80669733 10.05896865 -38.56203906 8.08290909 -42.06640625 6.80859375 C-48.62246802 7.02007961 -52.80573406 8.44217003 -57.51171875 13.30078125 C-62.04517622 18.50778098 -62.48705414 22.67675267 -62.3984375 29.36328125 C-60.45400896 49.53958676 -43.71967993 66.92042532 -28.7890625 79.41015625 C-28.22058594 79.87164062 -27.65210938 80.333125 -27.06640625 80.80859375 C-25.89940863 81.78736595 -24.73271591 82.76650188 -23.56640625 83.74609375 C-22.74140625 84.42671875 -21.91640625 85.10734375 -21.06640625 85.80859375 C-13.06184421 78.26262641 -5.55975424 66.63337283 -3.06640625 55.80859375 C-3.46679941 52.47900851 -4.64074386 49.81959271 -6.06640625 46.80859375 C-9.07086556 37.32082749 -8.59689806 27.56547902 -7.06640625 17.80859375 C-5.74640625 17.80859375 -4.42640625 17.80859375 -3.06640625 17.80859375 C-3.21078125 18.43765625 -3.35515625 19.06671875 -3.50390625 19.71484375 C-6.27234237 32.48041031 -4.85881842 43.73184942 1.36328125 55.375 C4.35212085 60.00695789 8.09537855 63.87599621 11.93359375 67.80859375 C12.65804687 68.58332031 13.3825 69.35804687 14.12890625 70.15625 C19.54864567 75.81880929 25.47791029 80.38011556 31.93359375 84.80859375 C46.60648058 71.20867854 58.51666996 49.18392822 60.2421875 29.2421875 C60.54114663 20.84415371 59.76283212 13.5093779 54.3203125 6.828125 C51.4908897 4.0865335 49.86928337 2.84678516 45.87109375 2.68359375 C39.09848869 5.27735739 35.58041012 9.21168801 31.44921875 14.98046875 C30.69898438 15.88539062 30.69898438 15.88539062 29.93359375 16.80859375 C29.27359375 16.80859375 28.61359375 16.80859375 27.93359375 16.80859375 C26.63671875 15.015625 26.63671875 15.015625 25.18359375 12.62109375 C22.44639906 8.41920165 20.19048413 5.50172848 15.93359375 2.80859375 C11.6451647 2.29102473 8.60607994 2.45820259 4.93359375 4.80859375 C5.22234375 5.50984375 5.51109375 6.21109375 5.80859375 6.93359375 C6.17984375 7.88234375 6.55109375 8.83109375 6.93359375 9.80859375 C7.52140625 11.13890625 7.52140625 11.13890625 8.12109375 12.49609375 C9.67726812 18.84049695 8.10259569 25.46258322 6.93359375 31.80859375 C5.94359375 31.14859375 4.95359375 30.48859375 3.93359375 29.80859375 C4.09859375 29.02484375 4.26359375 28.24109375 4.43359375 27.43359375 C5.65473026 18.69967282 5.65473026 18.69967282 3.24609375 10.43359375 C-1.114903 5.48327312 -4.1634084 3.14778018 -10.796875 2.71875 C-15.26910665 2.89579187 -18.53298188 4.34230086 -21.76171875 7.4296875 Z " fill="#FBFBFB" transform="translate(172.06640625,13.19140625)"/>
<path d="M0 0 C9.96536345 1.60731669 18.00402414 5.72611019 24.40625 13.68359375 C34.39500305 28.20156081 36.68197882 44.36233392 34.56640625 61.515625 C31.97252245 74.85559884 25.27658198 86.11443059 14.1875 94 C12 95 12 95 9 95 C8.3125 92.75 8.3125 92.75 8 90 C8.4802211 89.4187738 8.9604422 88.83754761 9.45521545 88.2387085 C11.5493106 85.20393669 11.38718396 83.0991592 11.40405273 79.43066406 C11.41434761 78.45419922 11.41434761 78.45419922 11.42485046 77.45800781 C11.44311921 75.31032353 11.43927939 73.16337019 11.43359375 71.015625 C11.43815739 69.51592777 11.4434635 68.01623264 11.44947815 66.51654053 C11.45841075 63.37259431 11.45598677 60.22890204 11.44604492 57.08496094 C11.43458782 53.07234031 11.45471474 49.06060399 11.48396206 45.04809952 C11.5023909 41.94922383 11.50201785 38.85055711 11.49632454 35.75164032 C11.49617196 34.2733817 11.50216345 32.79510834 11.51461601 31.31690216 C11.62594552 20.04911081 11.62594552 20.04911081 7 10 C4.66186754 8.53386893 2.67219052 7.82221247 0 7 C0 4.69 0 2.38 0 0 Z " fill="#FDFDFD" transform="translate(168,103)"/>
<path d="M0 0 C1.65 0 3.3 0 5 0 C5 18.48 5 36.96 5 56 C-11.5 56 -28 56 -45 56 C-45 54.02 -45 52.04 -45 50 C-43.74445312 49.91363281 -42.48890625 49.82726562 -41.1953125 49.73828125 C-29.43403905 48.80663707 -20.29119325 47.69993298 -11.6875 38.9375 C-2.44877794 27.72038493 -0.82091124 13.97709405 0 0 Z " fill="#FDFDFD" transform="translate(89,264)"/>
<path d="M0 0 C5.17111023 2.33206932 7.30434724 5.38538853 9.3046875 10.50390625 C10.9315832 16.344279 10.86598118 21.74442441 8.375 27.3125 C6.11784713 31.21697848 3.8342286 33.59420951 0 36 C-3.56445604 36.71289121 -5.6931914 36.74097395 -8.89453125 34.92578125 C-14.10072316 30.92523378 -16.38747487 26.43433686 -17.27734375 19.9921875 C-17.60026321 13.40463043 -15.75855962 8.0159098 -11.4375 3.0625 C-7.51495928 -0.25657292 -5.14045328 -0.42837111 0 0 Z " fill="#FDFDFD" transform="translate(210,209)"/>
</svg>
